<svg width="433" height="327" viewBox="0 0 433 327" fill="none" xmlns="http://www.w3.org/2000/svg">
<path d="M361.891 10.7901L334.211 32.4151L216.355 119.996L98.4983 31.5501L70.8183 9.92507C64.2974 4.53061 56.3371 1.16781 47.9237 0.25329C39.5102 -0.661231 31.0133 0.912718 23.4857 4.78014C15.958 8.64755 9.73041 14.6385 5.57437 22.0107C1.41834 29.383 -0.483472 37.8125 0.104544 46.2551V296.889C0.104544 304.689 3.20309 312.169 8.71853 317.685C14.234 323.2 21.7145 326.299 29.5145 326.299H98.4983V159.354L216.355 247.8L334.211 159.354V326.299H403.195C410.995 326.299 418.475 323.2 423.991 317.685C429.506 312.169 432.605 304.689 432.605 296.889V46.2551C433.011 37.8854 430.977 29.5779 426.75 22.3426C422.523 15.1073 416.285 9.2557 408.795 5.49909C401.304 1.74249 392.884 0.242679 384.557 1.18197C376.231 2.12127 368.356 5.45922 361.891 10.7901V10.7901Z" fill="black"/>
</svg>
