<svg width="478" height="479" viewBox="0 0 478 479" fill="none" xmlns="http://www.w3.org/2000/svg">
<path d="M106.716 149.53H0V478.5H106.716V149.53Z" fill="#1B80E4"/>
<path d="M397.392 153.388C396.259 153.033 395.185 152.645 393.996 152.31C392.558 151.983 391.131 151.71 389.668 151.477C384.006 150.338 377.793 149.531 370.52 149.531C308.309 149.531 268.842 194.903 255.846 212.425V149.53H149.129V478.5H255.845V299.063C255.845 299.063 336.488 186.435 370.519 269.152V478.5H477.207V256.507C477.207 206.799 443.232 165.38 397.392 153.388Z" fill="#1B80E4"/>
<path d="M104.392 52.335C104.392 81.244 81.019 104.672 52.197 104.672C23.373 104.672 0.000976562 81.243 0.000976562 52.335C0.000976562 23.432 23.373 0 52.197 0C81.019 0 104.392 23.432 104.392 52.335Z" fill="#1B80E4"/>
</svg>
